<svg xmlns="http://www.w3.org/2000/svg" xmlns:xlink="http://www.w3.org/1999/xlink" viewBox="0 0 731.12 569.9"><defs><style>.cls-1,.cls-8{fill:none;}.cls-2{fill:#999;}.cls-20,.cls-21,.cls-22,.cls-23,.cls-3{opacity:0.49;}.cls-4{fill:url(#New_Pattern_Swatch_44);}.cls-16,.cls-18,.cls-24,.cls-5{fill:#c1272d;}.cls-17,.cls-19,.cls-6{fill:#fff;}.cls-7{fill:url(#New_Pattern_Swatch_44-3);}.cls-8{stroke:#fff;}.cls-10,.cls-11,.cls-14,.cls-15,.cls-16,.cls-17,.cls-19,.cls-24,.cls-8{stroke-linecap:round;stroke-linejoin:round;}.cls-16,.cls-17,.cls-8{stroke-width:3px;}.cls-9{fill:url(#New_Pattern_Swatch_44-5);}.cls-10,.cls-11,.cls-14,.cls-15,.cls-16,.cls-17,.cls-18,.cls-19,.cls-24{stroke:#000;}.cls-10,.cls-11,.cls-14,.cls-15,.cls-19,.cls-24{stroke-width:5px;}.cls-10{fill:url(#New_Pattern_Swatch_44-7);}.cls-11{fill:url(#New_Pattern_Swatch_44-9);}.cls-12{fill:#bf2121;}.cls-13{fill:url(#New_Pattern_Swatch_44-11);}.cls-14{fill:url(#New_Pattern_Swatch_44-13);}.cls-15{fill:url(#New_Pattern_Swatch_44-15);}.cls-18{font-size:27px;stroke-miterlimit:10;font-family:OpenSans-Semibold, Open Sans;font-weight:700;letter-spacing:0.06em;}.cls-20{fill:url(#New_Pattern_Swatch_44-17);}.cls-21{fill:url(#New_Pattern_Swatch_44-19);}.cls-22{fill:url(#New_Pattern_Swatch_44-21);}.cls-23{fill:url(#New_Pattern_Swatch_44-23);}</style><pattern id="New_Pattern_Swatch_44" data-name="New Pattern Swatch 44" width="14" height="14" patternTransform="translate(11.73 11.62) scale(0.52 0.97)" patternUnits="userSpaceOnUse" viewBox="0 0 14 14"><rect class="cls-1" width="14" height="14"/><circle class="cls-2" cx="7" cy="7" r="1.41"/><path class="cls-2" d="M14,1.41V0H12.59A1.41,1.41,0,0,0,14,1.41Z"/><path class="cls-2" d="M1.41,0H0V1.41H0A1.41,1.41,0,0,0,1.41,0Z"/><path class="cls-2" d="M14,12.59A1.41,1.41,0,0,0,12.59,14H14Z"/><path class="cls-2" d="M0,12.59H0V14H1.41A1.41,1.41,0,0,0,0,12.59Z"/></pattern><pattern id="New_Pattern_Swatch_44-3" data-name="New Pattern Swatch 44" width="14" height="14" patternTransform="matrix(-0.52, 0, 0, 0.97, -7.71, 11.52)" patternUnits="userSpaceOnUse" viewBox="0 0 14 14"><rect class="cls-1" width="14" height="14"/><circle class="cls-2" cx="7" cy="7" r="1.41"/><path class="cls-2" d="M14,1.41V0H12.59A1.41,1.41,0,0,0,14,1.41Z"/><path class="cls-2" d="M1.41,0H0V1.41H0A1.41,1.41,0,0,0,1.41,0Z"/><path class="cls-2" d="M14,12.59A1.41,1.41,0,0,0,12.59,14H14Z"/><path class="cls-2" d="M0,12.59H0V14H1.41A1.41,1.41,0,0,0,0,12.59Z"/></pattern><pattern id="New_Pattern_Swatch_44-5" data-name="New Pattern Swatch 44" width="14" height="14" patternTransform="translate(7.8 12.91) scale(0.58 0.6)" patternUnits="userSpaceOnUse" viewBox="0 0 14 14"><rect class="cls-1" width="14" height="14"/><circle class="cls-2" cx="7" cy="7" r="1.41"/><path class="cls-2" d="M14,1.41V0H12.59A1.41,1.41,0,0,0,14,1.41Z"/><path class="cls-2" d="M1.41,0H0V1.41H0A1.41,1.41,0,0,0,1.41,0Z"/><path class="cls-2" d="M14,12.59A1.41,1.41,0,0,0,12.59,14H14Z"/><path class="cls-2" d="M0,12.59H0V14H1.41A1.41,1.41,0,0,0,0,12.59Z"/></pattern><pattern id="New_Pattern_Swatch_44-7" data-name="New Pattern Swatch 44" width="14" height="14" patternTransform="translate(20.02 20)" patternUnits="userSpaceOnUse" viewBox="0 0 14 14"><rect class="cls-1" width="14" height="14"/><circle class="cls-2" cx="7" cy="7" r="1.41"/><path class="cls-2" d="M14,1.41V0H12.59A1.41,1.41,0,0,0,14,1.41Z"/><path class="cls-2" d="M1.41,0H0V1.41H0A1.41,1.41,0,0,0,1.41,0Z"/><path class="cls-2" d="M14,12.59A1.41,1.41,0,0,0,12.59,14H14Z"/><path class="cls-2" d="M0,12.59H0V14H1.41A1.41,1.41,0,0,0,0,12.59Z"/></pattern><pattern id="New_Pattern_Swatch_44-9" data-name="New Pattern Swatch 44" width="14" height="14" patternTransform="translate(19.14 18.9)" patternUnits="userSpaceOnUse" viewBox="0 0 14 14"><rect class="cls-1" width="14" height="14"/><circle class="cls-2" cx="7" cy="7" r="1.41"/><path class="cls-2" d="M14,1.41V0H12.59A1.41,1.41,0,0,0,14,1.41Z"/><path class="cls-2" d="M1.41,0H0V1.41H0A1.41,1.41,0,0,0,1.41,0Z"/><path class="cls-2" d="M14,12.59A1.41,1.41,0,0,0,12.59,14H14Z"/><path class="cls-2" d="M0,12.59H0V14H1.41A1.41,1.41,0,0,0,0,12.59Z"/></pattern><pattern id="New_Pattern_Swatch_44-11" data-name="New Pattern Swatch 44" width="14" height="14" patternTransform="translate(2.06 12.42) scale(0.58 0.6)" patternUnits="userSpaceOnUse" viewBox="0 0 14 14"><rect class="cls-1" width="14" height="14"/><circle class="cls-2" cx="7" cy="7" r="1.41"/><path class="cls-2" d="M14,1.41V0H12.59A1.41,1.41,0,0,0,14,1.41Z"/><path class="cls-2" d="M1.41,0H0V1.41H0A1.41,1.41,0,0,0,1.41,0Z"/><path class="cls-2" d="M14,12.59A1.41,1.41,0,0,0,12.59,14H14Z"/><path class="cls-2" d="M0,12.59H0V14H1.41A1.41,1.41,0,0,0,0,12.59Z"/></pattern><pattern id="New_Pattern_Swatch_44-13" data-name="New Pattern Swatch 44" width="14" height="14" patternTransform="translate(5.02 5.52)" patternUnits="userSpaceOnUse" viewBox="0 0 14 14"><rect class="cls-1" width="14" height="14"/><circle class="cls-2" cx="7" cy="7" r="1.41"/><path class="cls-2" d="M14,1.41V0H12.59A1.41,1.41,0,0,0,14,1.41Z"/><path class="cls-2" d="M1.41,0H0V1.41H0A1.41,1.41,0,0,0,1.41,0Z"/><path class="cls-2" d="M14,12.59A1.41,1.41,0,0,0,12.59,14H14Z"/><path class="cls-2" d="M0,12.59H0V14H1.41A1.41,1.41,0,0,0,0,12.59Z"/></pattern><pattern id="New_Pattern_Swatch_44-15" data-name="New Pattern Swatch 44" width="14" height="14" patternTransform="translate(4.14 4.41)" patternUnits="userSpaceOnUse" viewBox="0 0 14 14"><rect class="cls-1" width="14" height="14"/><circle class="cls-2" cx="7" cy="7" r="1.41"/><path class="cls-2" d="M14,1.41V0H12.59A1.41,1.41,0,0,0,14,1.41Z"/><path class="cls-2" d="M1.41,0H0V1.41H0A1.41,1.41,0,0,0,1.41,0Z"/><path class="cls-2" d="M14,12.59A1.41,1.41,0,0,0,12.59,14H14Z"/><path class="cls-2" d="M0,12.59H0V14H1.41A1.41,1.41,0,0,0,0,12.59Z"/></pattern><pattern id="New_Pattern_Swatch_44-17" data-name="New Pattern Swatch 44" width="14" height="14" patternTransform="matrix(-0.67, 0, 0, 0.66, -3.03, 15.75)" patternUnits="userSpaceOnUse" viewBox="0 0 14 14"><rect class="cls-1" width="14" height="14"/><circle class="cls-2" cx="7" cy="7" r="1.41"/><path class="cls-2" d="M14,1.41V0H12.59A1.41,1.41,0,0,0,14,1.41Z"/><path class="cls-2" d="M1.41,0H0V1.41H0A1.41,1.41,0,0,0,1.41,0Z"/><path class="cls-2" d="M14,12.59A1.41,1.41,0,0,0,12.59,14H14Z"/><path class="cls-2" d="M0,12.59H0V14H1.41A1.41,1.41,0,0,0,0,12.59Z"/></pattern><pattern id="New_Pattern_Swatch_44-19" data-name="New Pattern Swatch 44" width="14" height="14" patternTransform="matrix(-0.6, 0.05, -0.05, 0.61, 23.25, 21.26)" patternUnits="userSpaceOnUse" viewBox="0 0 14 14"><rect class="cls-1" width="14" height="14"/><circle class="cls-2" cx="7" cy="7" r="1.41"/><path class="cls-2" d="M14,1.41V0H12.59A1.41,1.41,0,0,0,14,1.41Z"/><path class="cls-2" d="M1.41,0H0V1.41H0A1.41,1.41,0,0,0,1.41,0Z"/><path class="cls-2" d="M14,12.59A1.41,1.41,0,0,0,12.59,14H14Z"/><path class="cls-2" d="M0,12.59H0V14H1.41A1.41,1.41,0,0,0,0,12.59Z"/></pattern><pattern id="New_Pattern_Swatch_44-21" data-name="New Pattern Swatch 44" width="14" height="14" patternTransform="matrix(0.67, 0, 0, 0.66, 3.41, 3.57)" patternUnits="userSpaceOnUse" viewBox="0 0 14 14"><rect class="cls-1" width="14" height="14"/><circle class="cls-2" cx="7" cy="7" r="1.41"/><path class="cls-2" d="M14,1.41V0H12.59A1.41,1.41,0,0,0,14,1.41Z"/><path class="cls-2" d="M1.41,0H0V1.41H0A1.41,1.41,0,0,0,1.41,0Z"/><path class="cls-2" d="M14,12.59A1.41,1.41,0,0,0,12.59,14H14Z"/><path class="cls-2" d="M0,12.59H0V14H1.41A1.41,1.41,0,0,0,0,12.59Z"/></pattern><pattern id="New_Pattern_Swatch_44-23" data-name="New Pattern Swatch 44" width="14" height="14" patternTransform="matrix(0.6, 0.05, 0.05, 0.61, -11.83, 15.27)" patternUnits="userSpaceOnUse" viewBox="0 0 14 14"><rect class="cls-1" width="14" height="14"/><circle class="cls-2" cx="7" cy="7" r="1.41"/><path class="cls-2" d="M14,1.41V0H12.59A1.41,1.41,0,0,0,14,1.41Z"/><path class="cls-2" d="M1.41,0H0V1.41H0A1.41,1.41,0,0,0,1.41,0Z"/><path class="cls-2" d="M14,12.59A1.41,1.41,0,0,0,12.59,14H14Z"/><path class="cls-2" d="M0,12.59H0V14H1.41A1.41,1.41,0,0,0,0,12.59Z"/></pattern></defs><title>Theaterfront</title><g id="Main_Door" data-name="Main Door"><g id="Sign_Dot_Background" data-name="Sign Dot Background" class="cls-3"><path class="cls-4" d="M371.78,567.15a2.5,2.5,0,0,1-2.5-2.5V194a8.51,8.51,0,0,1,8.5-8.5H517a8.51,8.51,0,0,1,8.5,8.5V564.65a2.5,2.5,0,0,1-2.5,2.5Z" transform="translate(-0.88 -1.1)"/><path d="M517,188a6,6,0,0,1,6,6V564.65H371.78V194a6,6,0,0,1,6-6H517m0-5H377.78a11,11,0,0,0-11,11V564.65a5,5,0,0,0,5,5H523a5,5,0,0,0,5-5V194a11,11,0,0,0-11-11Z" transform="translate(-0.88 -1.1)"/></g><g id="Sign_Outline" data-name="Sign Outline"><path d="M520.73,189.14a3,3,0,0,1,3,3V566h-152V192.14a3,3,0,0,1,3-3h146m0-5h-146a8,8,0,0,0-8,8V566a5,5,0,0,0,5,5h152a5,5,0,0,0,5-5V192.14a8,8,0,0,0-8-8Z" transform="translate(-0.88 -1.1)"/></g><g id="Sign_Outline-2" data-name="Sign Outline"><path class="cls-5" d="M398.65,542.91a2.5,2.5,0,0,1-2.5-2.5V212.86a5.51,5.51,0,0,1,5.5-5.5h99.09a5.51,5.51,0,0,1,5.5,5.5V540.41a2.5,2.5,0,0,1-2.5,2.5Z" transform="translate(-0.88 -1.1)"/><path d="M500.74,209.86a3,3,0,0,1,3,3V540.41H398.65V212.86a3,3,0,0,1,3-3h99.09m0-5H401.65a8,8,0,0,0-8,8V540.41a5,5,0,0,0,5,5H503.74a5,5,0,0,0,5-5V212.86a8,8,0,0,0-8-8Z" transform="translate(-0.88 -1.1)"/></g><g id="Sign_Outline-3" data-name="Sign Outline"><path class="cls-6" d="M380.48,399.5a1.63,1.63,0,0,1-1.62-1.62V376a3.5,3.5,0,0,1,7,0v21.88a1.63,1.63,0,0,1-1.62,1.63Z" transform="translate(-0.88 -1.1)"/><path d="M382.36,374a2,2,0,0,1,2,2v21.88a.13.13,0,0,1-.12.12h-3.75a.13.13,0,0,1-.12-.12V376a2,2,0,0,1,2-2m0-3a5,5,0,0,0-5,5v21.88a3.12,3.12,0,0,0,3.13,3.12h3.75a3.12,3.12,0,0,0,3.13-3.12V376a5,5,0,0,0-5-5Z" transform="translate(-0.88 -1.1)"/></g><g id="Sign_Dot_Background-2" data-name="Sign Dot Background" class="cls-3"><path class="cls-7" d="M210.56,567a2.5,2.5,0,0,1-2.5-2.5V193.89a8.51,8.51,0,0,1,8.5-8.5H355.78a8.51,8.51,0,0,1,8.5,8.5V564.54a2.5,2.5,0,0,1-2.5,2.5Z" transform="translate(-0.88 -1.1)"/><path d="M355.78,187.89a6,6,0,0,1,6,6V564.55H210.56V193.89a6,6,0,0,1,6-6H355.78m0-5H216.56a11,11,0,0,0-11,11V564.55a5,5,0,0,0,5,5H361.78a5,5,0,0,0,5-5V193.89a11,11,0,0,0-11-11Z" transform="translate(-0.88 -1.1)"/></g><g id="Sign_Outline-4" data-name="Sign Outline"><path d="M358.78,189a3,3,0,0,1,3,3V565.89h-152V192a3,3,0,0,1,3-3h146m0-5h-146a8,8,0,0,0-8,8V565.89a5,5,0,0,0,5,5h152a5,5,0,0,0,5-5V192a8,8,0,0,0-8-8Z" transform="translate(-0.88 -1.1)"/></g><g id="Sign_Outline-5" data-name="Sign Outline"><path class="cls-5" d="M229.81,542.8a2.5,2.5,0,0,1-2.5-2.5V212.75a5.51,5.51,0,0,1,5.5-5.5H331.9a5.51,5.51,0,0,1,5.5,5.5V540.3a2.5,2.5,0,0,1-2.5,2.5Z" transform="translate(-0.88 -1.1)"/><path d="M331.9,209.75a3,3,0,0,1,3,3V540.3H229.81V212.75a3,3,0,0,1,3-3H331.9m0-5H232.81a8,8,0,0,0-8,8V540.3a5,5,0,0,0,5,5H334.9a5,5,0,0,0,5-5V212.75a8,8,0,0,0-8-8Z" transform="translate(-0.88 -1.1)"/></g><g id="Sign_Outline-6" data-name="Sign Outline"><path class="cls-6" d="M349.32,399.39a1.63,1.63,0,0,1-1.62-1.62V375.89a3.5,3.5,0,0,1,7,0v21.88a1.63,1.63,0,0,1-1.62,1.63Z" transform="translate(-0.88 -1.1)"/><path d="M351.2,373.89a2,2,0,0,1,2,2v21.88a.13.13,0,0,1-.12.12h-3.75a.13.13,0,0,1-.12-.12V375.89a2,2,0,0,1,2-2m0-3a5,5,0,0,0-5,5v21.88a3.12,3.12,0,0,0,3.13,3.12h3.75a3.12,3.12,0,0,0,3.13-3.12V375.89a5,5,0,0,0-5-5Z" transform="translate(-0.88 -1.1)"/></g><line class="cls-8" x1="365.9" y1="190.93" x2="365.9" y2="563.44"/></g><g id="Box_Offices" data-name="Box Offices"><g id="Right_Box_Office" data-name="Right Box Office"><g id="Sign_Dot_Background-3" data-name="Sign Dot Background" class="cls-3"><path class="cls-9" d="M554.38,418.5a2.5,2.5,0,0,1-2.5-2.5V195a8.51,8.51,0,0,1,8.5-8.5H717.69a8.51,8.51,0,0,1,8.5,8.5V416a2.5,2.5,0,0,1-2.5,2.5Z" transform="translate(-0.88 -1.1)"/><path d="M717.69,189a6,6,0,0,1,6,6V416H554.38V195a6,6,0,0,1,6-6H717.69m0-5H560.38a11,11,0,0,0-11,11V416a5,5,0,0,0,5,5H723.69a5,5,0,0,0,5-5V195a11,11,0,0,0-11-11Z" transform="translate(-0.88 -1.1)"/></g><g id="Sign_Outline-7" data-name="Sign Outline"><path class="cls-6" d="M564.49,377.35a2.5,2.5,0,0,1-2.5-2.5V209.48a5.51,5.51,0,0,1,5.5-5.5H710.58a5.51,5.51,0,0,1,5.5,5.5V374.85a2.5,2.5,0,0,1-2.5,2.5Z" transform="translate(-0.88 -1.1)"/><path d="M710.58,206.48a3,3,0,0,1,3,3V374.85H564.49V209.48a3,3,0,0,1,3-3H710.58m0-5H567.49a8,8,0,0,0-8,8V374.85a5,5,0,0,0,5,5H713.58a5,5,0,0,0,5-5V209.48a8,8,0,0,0-8-8Z" transform="translate(-0.88 -1.1)"/></g><g id="Sign_Outline-8" data-name="Sign Outline"><path d="M721.11,189.68a3,3,0,0,1,3,3V414.35H554.38V192.68a3,3,0,0,1,3-3H721.11m0-5H557.38a8,8,0,0,0-8,8V414.35a5,5,0,0,0,5,5H724.11a5,5,0,0,0,5-5V192.68a8,8,0,0,0-8-8Z" transform="translate(-0.88 -1.1)"/></g><path id="Sign_Middle_Circle_Outline" data-name="Sign Middle Circle Outline" class="cls-10" d="M684.19,376.42,597.09,376s2.51-15.39,10.24-24,21.59-11.32,33.39-11.42c12.42-.1,24.43.89,32.7,10.38C680,358.49,684.19,376.42,684.19,376.42Z" transform="translate(-0.88 -1.1)"/><circle class="cls-11" cx="638.45" cy="277.9" r="28"/><g id="Sign_Middle_Circle" data-name="Sign Middle Circle"><path class="cls-12" d="M605.89,374.88a57.56,57.56,0,0,1,9.66-16.25c5.64-6.31,11.85-6.78,20.67-6.78h7.07c11.27,0,16.57,1.49,23.87,9.87a29.62,29.62,0,0,1,6.28,13.16Z" transform="translate(-0.88 -1.1)"/><path d="M643.29,349.35v5h0c10.6,0,15.27,1.3,22,9a25.69,25.69,0,0,1,4.91,9H609.69a50.82,50.82,0,0,1,7.72-12.08c5-5.55,10.41-5.95,18.81-5.95h7.06v-5m0,0h-7.06c-9,0-16.14.45-22.54,7.61-7.73,8.65-11.37,20.41-11.37,20.41h74a32.87,32.87,0,0,0-7.31-17.3c-8-9.17-14.14-10.73-25.75-10.73Z" transform="translate(-0.88 -1.1)"/></g></g><g id="Left_Box_Office" data-name="Left Box Office"><g id="Sign_Dot_Background-4" data-name="Sign Dot Background" class="cls-3"><path class="cls-13" d="M7.38,418a2.5,2.5,0,0,1-2.5-2.5v-221a8.51,8.51,0,0,1,8.5-8.5H170.69a8.51,8.51,0,0,1,8.5,8.5v221a2.5,2.5,0,0,1-2.5,2.5Z" transform="translate(-0.88 -1.1)"/><path d="M170.69,188.52a6,6,0,0,1,6,6v221H7.38v-221a6,6,0,0,1,6-6H170.69m0-5H13.38a11,11,0,0,0-11,11v221a5,5,0,0,0,5,5H176.69a5,5,0,0,0,5-5v-221a11,11,0,0,0-11-11Z" transform="translate(-0.88 -1.1)"/></g><g id="Sign_Outline-9" data-name="Sign Outline"><path class="cls-6" d="M17.49,376.87a2.5,2.5,0,0,1-2.5-2.5V209a5.51,5.51,0,0,1,5.5-5.5H163.58a5.51,5.51,0,0,1,5.5,5.5V374.37a2.5,2.5,0,0,1-2.5,2.5Z" transform="translate(-0.88 -1.1)"/><path d="M163.58,206a3,3,0,0,1,3,3V374.37H17.49V209a3,3,0,0,1,3-3H163.58m0-5H20.49a8,8,0,0,0-8,8V374.37a5,5,0,0,0,5,5H166.58a5,5,0,0,0,5-5V209a8,8,0,0,0-8-8Z" transform="translate(-0.88 -1.1)"/></g><g id="Sign_Outline-10" data-name="Sign Outline"><path d="M174.11,189.19a3,3,0,0,1,3,3V413.87H7.38V192.19a3,3,0,0,1,3-3H174.11m0-5H10.38a8,8,0,0,0-8,8V413.87a5,5,0,0,0,5,5H177.11a5,5,0,0,0,5-5V192.19a8,8,0,0,0-8-8Z" transform="translate(-0.88 -1.1)"/></g><path id="Sign_Middle_Circle_Outline-2" data-name="Sign Middle Circle Outline" class="cls-14" d="M137.19,375.94l-87.11-.44s2.51-15.39,10.24-24S81.92,340.14,93.71,340c12.42-.1,24.43.89,32.7,10.38C133,358,137.19,375.94,137.19,375.94Z" transform="translate(-0.88 -1.1)"/><circle class="cls-15" cx="91.45" cy="277.41" r="28"/><g id="Sign_Middle_Circle-2" data-name="Sign Middle Circle"><path class="cls-12" d="M58.89,374.39a57.56,57.56,0,0,1,9.66-16.25c5.64-6.31,11.84-6.78,20.67-6.78h7.07c11.27,0,16.57,1.49,23.87,9.87a29.62,29.62,0,0,1,6.28,13.16Z" transform="translate(-0.88 -1.1)"/><path d="M96.29,348.86v5h0c10.6,0,15.27,1.3,22,9a25.69,25.69,0,0,1,4.91,9H62.7a50.92,50.92,0,0,1,7.71-12.08c5-5.55,10.41-5.95,18.81-5.95h7.06v-5m0,0H89.22c-9,0-16.14.45-22.54,7.61-7.73,8.65-11.37,20.41-11.37,20.41h74a32.88,32.88,0,0,0-7.31-17.3c-8-9.17-14.14-10.73-25.75-10.73Z" transform="translate(-0.88 -1.1)"/></g></g></g><g id="Door_Signs" data-name="Door Signs"><g id="Left_Sign" data-name="Left Sign"><rect class="cls-16" x="1.5" y="115" width="179.73" height="51.9" rx="5" ry="5"/><rect class="cls-17" x="7.99" y="120" width="166.32" height="41.9" rx="8.97" ry="8.97"/><text class="cls-18" transform="translate(30.99 150.9) scale(1.07 1)">TICKETS</text></g><g id="Left_Sign-2" data-name="Left Sign"><rect class="cls-16" x="549.89" y="118" width="179.73" height="51.9" rx="5" ry="5"/><rect class="cls-17" x="556.39" y="123" width="166.32" height="41.9" rx="8.97" ry="8.97"/><text class="cls-18" transform="translate(579.39 153.9) scale(1.07 1)">TICKETS</text></g></g><g id="Sign"><g id="Right_Side_Decorations" data-name="Right Side Decorations"><path class="cls-19" d="M330.11,114.54,435,37.61s-18.52-80-89.16,29.06C320.26,106.1,330.11,114.54,330.11,114.54Z" transform="translate(-0.88 -1.1)"/><path class="cls-19" d="M347.66,119.25,476.28,68.66s4.6-82-93.74,3C347,102.32,347.66,119.25,347.66,119.25Z" transform="translate(-0.88 -1.1)"/><path class="cls-19" d="M358.81,117.58,511.38,100s23.55-78.65-91.85-18.93C377.81,102.68,358.81,117.58,358.81,117.58Z" transform="translate(-0.88 -1.1)"/><path class="cls-20" d="M362.51,117.83l142.21-17S527.1,28.65,419.28,84C380.29,104.07,362.51,117.83,362.51,117.83Z" transform="translate(-0.88 -1.1)"/><path class="cls-19" d="M360.71,117.58H530.82s42.57-38.46-85.89-19A624.2,624.2,0,0,0,360.71,117.58Z" transform="translate(-0.88 -1.1)"/><path class="cls-21" d="M334.62,106.08l93-72.84s-10-66.94-76.57,30.93C327,99.56,334.62,106.08,334.62,106.08Z" transform="translate(-0.88 -1.1)"/></g><g id="Right_Side_Decorations-2" data-name="Right Side Decorations"><path class="cls-19" d="M431.2,115.47l-80.56-90s36.61-73.48,80,49C446.27,118.75,431.2,115.47,431.2,115.47Z" transform="translate(-0.88 -1.1)"/><path class="cls-19" d="M409.48,111.39,304.61,34.46s18.52-80,89.16,29.06C419.32,102.95,409.48,111.39,409.48,111.39Z" transform="translate(-0.88 -1.1)"/><path class="cls-19" d="M391.92,116.1,263.31,65.52s-4.6-82,93.74,3C392.6,99.17,391.92,116.1,391.92,116.1Z" transform="translate(-0.88 -1.1)"/><path class="cls-19" d="M380.77,114.43,228.21,96.87s-23.55-78.65,91.85-18.93C361.78,99.53,380.77,114.43,380.77,114.43Z" transform="translate(-0.88 -1.1)"/><path class="cls-22" d="M377.07,114.68l-142.21-17S212.48,25.5,320.31,80.89C359.29,100.92,377.07,114.68,377.07,114.68Z" transform="translate(-0.88 -1.1)"/><path class="cls-19" d="M378.87,114.43H208.76s-42.57-38.46,85.89-19A624.2,624.2,0,0,1,378.87,114.43Z" transform="translate(-0.88 -1.1)"/><path class="cls-23" d="M405,102.93,312,30.1s10-66.94,76.57,30.93C412.61,96.41,405,102.93,405,102.93Z" transform="translate(-0.88 -1.1)"/></g><path class="cls-17" d="M528,116v54l-321-1V116.5S278.86,63,367.5,63,528,116,528,116Z" transform="translate(-0.88 -1.1)"/><path class="cls-24" d="M508.74,128v30H223V132s80.71-53,144.5-53S508.74,128,508.74,128Z" transform="translate(-0.88 -1.1)"/></g></svg>