<svg xmlns="http://www.w3.org/2000/svg" xmlns:xlink="http://www.w3.org/1999/xlink" viewBox="0 0 779.78 395.68"><defs><style>.cls-1{fill:none;}.cls-2{fill:#999;}.cls-3{fill:#c1272d;}.cls-13,.cls-3,.cls-8{stroke:#000;stroke-linejoin:round;stroke-width:5px;}.cls-13,.cls-17,.cls-3,.cls-8{stroke-linecap:round;}.cls-17,.cls-4,.cls-8{fill:#fff;}.cls-5{fill:url(#New_Pattern_Swatch_44);}.cls-6{fill:url(#New_Pattern_Swatch_44-3);}.cls-13,.cls-7{fill:url(#New_Pattern_Swatch_44-5);}.cls-10,.cls-11,.cls-12,.cls-15,.cls-9{opacity:0.49;}.cls-9{fill:url(#New_Pattern_Swatch_44-7);}.cls-10{fill:url(#New_Pattern_Swatch_44-9);}.cls-11{fill:url(#New_Pattern_Swatch_44-11);}.cls-12{fill:url(#New_Pattern_Swatch_44-13);}.cls-14{fill:#bf2121;}.cls-16{fill:url(#New_Pattern_Swatch_44-17);}.cls-17{stroke:#231f20;stroke-miterlimit:10;stroke-width:2px;}</style><pattern id="New_Pattern_Swatch_44" data-name="New Pattern Swatch 44" width="14" height="14" patternTransform="matrix(-0.32, -0.1, -0.3, 0.95, -13.64, -11.56)" patternUnits="userSpaceOnUse" viewBox="0 0 14 14"><rect class="cls-1" width="14" height="14"/><circle class="cls-2" cx="7" cy="7" r="1.41"/><path class="cls-2" d="M14,1.41V0H12.59A1.41,1.41,0,0,0,14,1.41Z"/><path class="cls-2" d="M1.41,0H0V1.41H0A1.41,1.41,0,0,0,1.41,0Z"/><path class="cls-2" d="M14,12.59A1.41,1.41,0,0,0,12.59,14H14Z"/><path class="cls-2" d="M0,12.59H0V14H1.41A1.41,1.41,0,0,0,0,12.59Z"/></pattern><pattern id="New_Pattern_Swatch_44-3" data-name="New Pattern Swatch 44" width="14" height="14" patternTransform="matrix(0.32, -0.1, 0.3, 0.95, 18.36, -1.33)" patternUnits="userSpaceOnUse" viewBox="0 0 14 14"><rect class="cls-1" width="14" height="14"/><circle class="cls-2" cx="7" cy="7" r="1.41"/><path class="cls-2" d="M14,1.41V0H12.59A1.41,1.41,0,0,0,14,1.41Z"/><path class="cls-2" d="M1.41,0H0V1.41H0A1.41,1.41,0,0,0,1.41,0Z"/><path class="cls-2" d="M14,12.59A1.41,1.41,0,0,0,12.59,14H14Z"/><path class="cls-2" d="M0,12.59H0V14H1.41A1.41,1.41,0,0,0,0,12.59Z"/></pattern><pattern id="New_Pattern_Swatch_44-5" data-name="New Pattern Swatch 44" width="14" height="14" patternUnits="userSpaceOnUse" viewBox="0 0 14 14"><rect class="cls-1" width="14" height="14"/><circle class="cls-2" cx="7" cy="7" r="1.41"/><path class="cls-2" d="M14,1.41V0H12.59A1.41,1.41,0,0,0,14,1.41Z"/><path class="cls-2" d="M1.41,0H0V1.41H0A1.41,1.41,0,0,0,1.41,0Z"/><path class="cls-2" d="M14,12.59A1.41,1.41,0,0,0,12.59,14H14Z"/><path class="cls-2" d="M0,12.59H0V14H1.41A1.41,1.41,0,0,0,0,12.59Z"/></pattern><pattern id="New_Pattern_Swatch_44-7" data-name="New Pattern Swatch 44" width="14" height="14" patternTransform="translate(1.05 2.74) scale(0.96)" patternUnits="userSpaceOnUse" viewBox="0 0 14 14"><rect class="cls-1" width="14" height="14"/><circle class="cls-2" cx="7" cy="7" r="1.41"/><path class="cls-2" d="M14,1.41V0H12.59A1.41,1.41,0,0,0,14,1.41Z"/><path class="cls-2" d="M1.41,0H0V1.41H0A1.41,1.41,0,0,0,1.41,0Z"/><path class="cls-2" d="M14,12.59A1.41,1.41,0,0,0,12.59,14H14Z"/><path class="cls-2" d="M0,12.59H0V14H1.41A1.41,1.41,0,0,0,0,12.59Z"/></pattern><pattern id="New_Pattern_Swatch_44-9" data-name="New Pattern Swatch 44" width="14" height="14" patternTransform="translate(-2.66 -3.2) scale(0.96)" patternUnits="userSpaceOnUse" viewBox="0 0 14 14"><rect class="cls-1" width="14" height="14"/><circle class="cls-2" cx="7" cy="7" r="1.41"/><path class="cls-2" d="M14,1.41V0H12.59A1.41,1.41,0,0,0,14,1.41Z"/><path class="cls-2" d="M1.41,0H0V1.41H0A1.41,1.41,0,0,0,1.41,0Z"/><path class="cls-2" d="M14,12.59A1.41,1.41,0,0,0,12.59,14H14Z"/><path class="cls-2" d="M0,12.59H0V14H1.41A1.41,1.41,0,0,0,0,12.59Z"/></pattern><pattern id="New_Pattern_Swatch_44-11" data-name="New Pattern Swatch 44" width="14" height="14" patternTransform="matrix(-0.96, 0, 0, 0.96, -12.2, 2.34)" patternUnits="userSpaceOnUse" viewBox="0 0 14 14"><rect class="cls-1" width="14" height="14"/><circle class="cls-2" cx="7" cy="7" r="1.41"/><path class="cls-2" d="M14,1.41V0H12.59A1.41,1.41,0,0,0,14,1.41Z"/><path class="cls-2" d="M1.41,0H0V1.41H0A1.41,1.41,0,0,0,1.41,0Z"/><path class="cls-2" d="M14,12.59A1.41,1.41,0,0,0,12.59,14H14Z"/><path class="cls-2" d="M0,12.59H0V14H1.41A1.41,1.41,0,0,0,0,12.59Z"/></pattern><pattern id="New_Pattern_Swatch_44-13" data-name="New Pattern Swatch 44" width="14" height="14" patternTransform="matrix(-0.96, 0, 0, 0.96, -7.88, -3.6)" patternUnits="userSpaceOnUse" viewBox="0 0 14 14"><rect class="cls-1" width="14" height="14"/><circle class="cls-2" cx="7" cy="7" r="1.41"/><path class="cls-2" d="M14,1.41V0H12.59A1.41,1.41,0,0,0,14,1.41Z"/><path class="cls-2" d="M1.41,0H0V1.41H0A1.41,1.41,0,0,0,1.41,0Z"/><path class="cls-2" d="M14,12.59A1.41,1.41,0,0,0,12.59,14H14Z"/><path class="cls-2" d="M0,12.59H0V14H1.41A1.41,1.41,0,0,0,0,12.59Z"/></pattern><pattern id="New_Pattern_Swatch_44-17" data-name="New Pattern Swatch 44" x="1.78" y="-4.23" width="14" height="14" patternUnits="userSpaceOnUse" viewBox="0 0 14 14"><rect class="cls-1" width="14" height="14"/><circle class="cls-2" cx="7" cy="7" r="1.41"/><path class="cls-2" d="M14,1.41V0H12.59A1.41,1.41,0,0,0,14,1.41Z"/><path class="cls-2" d="M1.41,0H0V1.41H0A1.41,1.41,0,0,0,1.41,0Z"/><path class="cls-2" d="M14,12.59A1.41,1.41,0,0,0,12.59,14H14Z"/><path class="cls-2" d="M0,12.59H0V14H1.41A1.41,1.41,0,0,0,0,12.59Z"/></pattern></defs><title>titlesign</title><g id="Sign"><path class="cls-3" d="M379.09,101.61l80.57,24.46S470.91,83,471.41,56.89s-9.9-37.52-20.67-41.27c-11.34-3.95-23.27-4.75-39.24,18.94C398.74,53.48,379.09,101.61,379.09,101.61Z" transform="translate(1.78 -4.23)"/><path class="cls-4" d="M388.7,105c2.58-6.92,10.59-27.32,20.81-42.48,12.4-18.4,18.47-22.1,24.24-22.1a21.79,21.79,0,0,1,7.16,1.49c1.26.44,2.48.82,3.67,1.18,8.72,2.69,14.48,4.47,14.06,25.72s-5.27,47.89-6.92,56.36Z" transform="translate(1.78 -4.23)"/><path d="M433.75,42.88a19.51,19.51,0,0,1,6.33,1.35c1.3.45,2.55.84,3.75,1.21,4.53,1.4,7.18,2.31,9,4.7,2.41,3.18,3.49,9.26,3.31,18.59-.37,19.15-4.39,42.7-6.35,53.16L392,103.38c3.23-8.39,10.55-26.07,19.61-39.5,8.5-12.6,15.52-21,22.17-21m0-5c-7.47,0-14.38,5.49-26.31,23.2-12.76,18.93-22,45.46-22,45.46l68.15,21.82s7-33.45,7.52-59.54-8.63-25.56-19.41-29.31a24.42,24.42,0,0,0-8-1.63Z" transform="translate(1.78 -4.23)"/><path class="cls-5" d="M388.7,105c2.58-6.92,10.59-27.32,20.81-42.48,12.4-18.4,18.47-22.1,24.24-22.1a21.79,21.79,0,0,1,7.16,1.49c1.26.44,2.48.82,3.67,1.18,8.72,2.69,14.48,4.47,14.06,25.72s-5.27,47.89-6.92,56.36Z" transform="translate(1.78 -4.23)"/><path d="M433.75,42.88a19.51,19.51,0,0,1,6.33,1.35c1.3.45,2.55.84,3.75,1.21,4.53,1.4,7.18,2.31,9,4.7,2.41,3.18,3.49,9.26,3.31,18.59-.37,19.15-4.39,42.7-6.35,53.16L392,103.38c3.23-8.39,10.55-26.07,19.61-39.5,8.5-12.6,15.52-21,22.17-21m0-5c-7.47,0-14.38,5.49-26.31,23.2-12.76,18.93-22,45.46-22,45.46l68.15,21.82s7-33.45,7.52-59.54-8.63-25.56-19.41-29.31a24.42,24.42,0,0,0-8-1.63Z" transform="translate(1.78 -4.23)"/><path class="cls-3" d="M396.85,101.61l-80.57,24.46S305,83,304.53,56.89s9.9-37.52,20.67-41.27c11.34-3.95,23.27-4.75,39.24,18.94C377.2,53.48,396.85,101.61,396.85,101.61Z" transform="translate(1.78 -4.23)"/><path class="cls-4" d="M324.22,125.13c-1.65-8.47-6.51-35.07-6.92-56.36s5.35-23,14.06-25.72c1.18-.36,2.41-.74,3.67-1.18a21.79,21.79,0,0,1,7.16-1.49c5.77,0,11.84,3.7,24.24,22.1C376.64,77.63,384.66,98,387.24,105Z" transform="translate(1.78 -4.23)"/><path d="M342.19,37.88v5c4.81,0,10.42,3.57,22.17,21C373.41,77.31,380.74,95,384,103.38l-57.82,18.51c-2-10.46-6-34-6.35-53.16-.18-9.33.9-15.4,3.31-18.59,1.81-2.39,4.46-3.3,9-4.7,1.2-.37,2.45-.76,3.75-1.21a19.52,19.52,0,0,1,6.34-1.35v-5m0,0a24.42,24.42,0,0,0-8,1.63c-10.77,3.75-19.91,3.22-19.41,29.31s7.52,59.54,7.52,59.54l68.15-21.82s-9.21-26.54-22-45.46c-11.93-17.7-18.85-23.2-26.31-23.2Z" transform="translate(1.78 -4.23)"/><path class="cls-6" d="M324.22,125.13c-1.65-8.47-6.51-35.07-6.92-56.36s5.35-23,14.06-25.72c1.18-.36,2.41-.74,3.67-1.18a21.79,21.79,0,0,1,7.16-1.49c5.77,0,11.84,3.7,24.24,22.1C376.64,77.63,384.66,98,387.24,105Z" transform="translate(1.78 -4.23)"/><path d="M342.19,37.88v5c4.81,0,10.42,3.57,22.17,21C373.41,77.31,380.74,95,384,103.38l-57.82,18.51c-2-10.46-6-34-6.35-53.16-.18-9.33.9-15.4,3.31-18.59,1.81-2.39,4.46-3.3,9-4.7,1.2-.37,2.45-.76,3.75-1.21a19.52,19.52,0,0,1,6.34-1.35v-5m0,0a24.42,24.42,0,0,0-8,1.63c-10.77,3.75-19.91,3.22-19.41,29.31s7.52,59.54,7.52,59.54l68.15-21.82s-9.21-26.54-22-45.46c-11.93-17.7-18.85-23.2-26.31-23.2Z" transform="translate(1.78 -4.23)"/><path class="cls-3" d="M343.25,109.58l84.2.62S426,65.68,419.1,40.51,399,7.34,387.58,6.8c-12-.57-23.66,2-32.26,29.28C348.44,57.85,343.25,109.58,343.25,109.58Z" transform="translate(1.78 -4.23)"/><path class="cls-4" d="M353.77,110.06c.51-7.37,2.41-29.21,7.91-46.64,7.8-24.72,13-28.71,22.33-28.71.63,0,1.27,0,1.93,0,1.33.06,2.61.08,3.85.09,9.12.11,15.15.18,20.78,20.68s8.52,47.41,9.34,56Z" transform="translate(1.78 -4.23)"/><path d="M384,37.21c.56,0,1.16,0,1.82,0,1.38.07,2.68.08,3.94.1,4.74.06,7.54.17,10,2,3.21,2.37,6,7.89,8.44,16.89,5.07,18.47,7.9,42.19,9,52.78l-60.69-1.36c.72-9,2.73-28,7.61-43.44,3.76-11.9,7.06-19.24,10.4-23.07,2.5-2.87,5-3.89,9.55-3.89m0-5c-10.68,0-16.62,4.81-24.72,30.46-6.87,21.77-8.18,49.83-8.18,49.83l71.54,1.6S419.9,80,413,54.87s-15.53-22.07-26.92-22.61c-.7,0-1.39-.05-2.05-.05Z" transform="translate(1.78 -4.23)"/><path class="cls-7" d="M353.41,110.06c.51-7.37,2.41-29.21,7.91-46.64,7.8-24.72,13-28.71,22.33-28.71.63,0,1.27,0,1.93,0,1.33.06,2.61.08,3.85.09,9.12.11,15.15.18,20.78,20.68s8.52,47.41,9.34,56Z" transform="translate(1.78 -4.23)"/><path d="M383.66,37.21c.56,0,1.16,0,1.82,0,1.38.07,2.68.08,3.94.1,4.74.06,7.54.17,10,2,3.21,2.37,6,7.89,8.44,16.89,5.07,18.47,7.9,42.19,9,52.78l-60.69-1.36c.72-9,2.73-28,7.61-43.44,3.76-11.9,7.06-19.24,10.4-23.07,2.5-2.87,5-3.89,9.55-3.89m0-5C373,32.21,367,37,358.94,62.67c-6.87,21.77-8.18,49.83-8.18,49.83l71.54,1.6S419.55,80,412.64,54.87s-15.53-22.07-26.92-22.61c-.7,0-1.39-.05-2.05-.05Z" transform="translate(1.78 -4.23)"/><g id="Left_Sign_Decorations" data-name="Left Sign Decorations"><path class="cls-8" d="M338,179.36,225.57,53.77s51.09-102.53,111.57,68.38C359,183.95,338,179.36,338,179.36Z" transform="translate(1.78 -4.23)"/><path class="cls-8" d="M307.67,173.67,161.35,66.33s25.84-111.61,124.42,40.56C321.4,161.89,307.67,173.67,307.67,173.67Z" transform="translate(1.78 -4.23)"/><path class="cls-8" d="M283.17,180.24,103.71,109.66S97.28-4.72,234.5,113.78C284.11,156.62,283.17,180.24,283.17,180.24Z" transform="translate(1.78 -4.23)"/><path class="cls-8" d="M267.62,177.91,54.73,153.42S21.88,43.67,182.9,127C241.11,157.13,267.62,177.91,267.62,177.91Z" transform="translate(1.78 -4.23)"/><path class="cls-9" d="M263.08,176.41,59.16,152.95S27.68,47.82,181.92,127.64C237.69,156.5,263.08,176.41,263.08,176.41Z" transform="translate(1.78 -4.23)"/><path class="cls-8" d="M265,177.91H27.59s-59.4-53.66,119.85-26.46A871,871,0,0,1,265,177.91Z" transform="translate(1.78 -4.23)"/><path class="cls-10" d="M304.92,170.86,164.19,67.62s24.85-107.34,119.66,39C318.13,159.54,304.92,170.86,304.92,170.86Z" transform="translate(1.78 -4.23)"/></g><g id="Right_Side_Decorations" data-name="Right Side Decorations"><path class="cls-8" d="M438.54,179,551,53.37S499.86-49.17,439.38,121.75C417.52,183.54,438.54,179,438.54,179Z" transform="translate(1.78 -4.23)"/><path class="cls-8" d="M468.85,173.27,615.17,65.92S589.34-45.68,490.76,106.48C455.12,161.49,468.85,173.27,468.85,173.27Z" transform="translate(1.78 -4.23)"/><path class="cls-8" d="M493.35,179.84l179.46-70.59S679.24-5.12,542,113.38C492.41,156.22,493.35,179.84,493.35,179.84Z" transform="translate(1.78 -4.23)"/><path class="cls-8" d="M508.9,177.51,721.79,153S754.64,43.27,593.62,126.6C535.41,156.72,508.9,177.51,508.9,177.51Z" transform="translate(1.78 -4.23)"/><path class="cls-11" d="M513.45,176l203.92-23.46s31.47-105.12-122.77-25.3C538.83,156.1,513.45,176,513.45,176Z" transform="translate(1.78 -4.23)"/><path class="cls-8" d="M511.56,177.51H748.93s59.4-53.66-119.85-26.46A871,871,0,0,0,511.56,177.51Z" transform="translate(1.78 -4.23)"/><path class="cls-12" d="M471.6,170.46,612.33,67.22s-24.85-107.34-119.66,39C458.39,159.14,471.6,170.46,471.6,170.46Z" transform="translate(1.78 -4.23)"/></g><path class="cls-13" d="M513.3,180.24,261.54,179s7.25-44.48,29.6-69.48,62.4-32.71,96.5-33c35.9-.3,70.61,2.57,94.5,30C501.23,128.42,513.3,180.24,513.3,180.24Z" transform="translate(1.78 -4.23)"/><path class="cls-8" d="M514.88,180.24,263.12,179s7.25-44.48,29.6-69.48,62.4-32.71,96.5-33c35.9-.3,70.61,2.57,94.5,30C502.81,128.42,514.88,180.24,514.88,180.24Z" transform="translate(1.78 -4.23)"/><path class="cls-14" d="M281.71,180.5c3.22-9,13.5-35,31.24-54.83,17.57-19.65,37.31-21.17,63.28-21.17h11.55l5.32,0,3.54,0c32.65,0,49.94,4.19,72.55,30.16,14.92,17.13,19.14,38.45,20.2,45.86Z" transform="translate(1.78 -4.23)"/><path d="M396.66,107c15.47,0,28.08.89,39.35,5.23,10.78,4.15,20.43,11.57,31.31,24.07,12.9,14.81,17.56,32.89,19.15,41.72H285.3c4.13-10.83,13.87-33.16,29.52-50.67,16.92-18.92,35.3-20.34,61.42-20.34h11.55l5.34,0,3.52,0h0m0-5-3.56,0-5.3,0-11.55,0c-25.93,0-46.64,1.31-65.14,22-22.35,25-32.87,59-32.87,59h214s-2-28.08-21.13-50c-23.08-26.51-40.87-31-74.44-31Z" transform="translate(1.78 -4.23)"/><g class="cls-15"><rect class="cls-16" x="2.5" y="175.27" width="773" height="217" rx="18.58" ry="18.58"/><path d="M755.14,182a16.1,16.1,0,0,1,16.08,16.08V377.92A16.1,16.1,0,0,1,755.14,394H19.3A16.1,16.1,0,0,1,3.22,377.92V198.08A16.1,16.1,0,0,1,19.3,182H755.14m0-5H19.3A21.08,21.08,0,0,0-1.78,198.08V377.92A21.08,21.08,0,0,0,19.3,399H755.14a21.08,21.08,0,0,0,21.08-21.08V198.08A21.08,21.08,0,0,0,755.14,177Z" transform="translate(1.78 -4.23)"/></g><rect class="cls-14" x="48.34" y="212.27" width="684.16" height="143" rx="18.58" ry="18.58"/><path d="M712.14,219a16.1,16.1,0,0,1,16.08,16.08V340.92A16.1,16.1,0,0,1,712.14,357h-647a16.1,16.1,0,0,1-16.08-16.08V235.08A16.1,16.1,0,0,1,65.14,219h647m0-5h-647a21.08,21.08,0,0,0-21.08,21.08V340.92A21.08,21.08,0,0,0,65.14,362h647a21.08,21.08,0,0,0,21.08-21.08V235.08A21.08,21.08,0,0,0,712.14,214Z" transform="translate(1.78 -4.23)"/><ellipse class="cls-17" cx="548.88" cy="200.4" rx="8.29" ry="8.5" transform="translate(346.13 743.52) rotate(-89.57)"/><ellipse class="cls-17" cx="580.88" cy="200.64" rx="8.29" ry="8.5" transform="translate(377.64 775.75) rotate(-89.57)"/><ellipse class="cls-17" cx="612.88" cy="200.88" rx="8.29" ry="8.5" transform="translate(409.16 807.99) rotate(-89.57)"/><ellipse class="cls-17" cx="644.88" cy="201.12" rx="8.29" ry="8.5" transform="translate(440.67 840.23) rotate(-89.57)"/><ellipse class="cls-17" cx="676.88" cy="201.36" rx="8.29" ry="8.5" transform="translate(472.19 872.47) rotate(-89.57)"/><ellipse class="cls-17" cx="708.88" cy="201.6" rx="8.29" ry="8.5" transform="translate(503.7 904.71) rotate(-89.57)"/><ellipse class="cls-17" cx="354.88" cy="199.4" rx="8.29" ry="8.5" transform="translate(154.59 548.53) rotate(-89.57)"/><ellipse class="cls-17" cx="386.88" cy="199.64" rx="8.29" ry="8.5" transform="translate(186.11 580.77) rotate(-89.57)"/><ellipse class="cls-17" cx="418.88" cy="199.88" rx="8.29" ry="8.5" transform="translate(217.62 613.01) rotate(-89.57)"/><ellipse class="cls-17" cx="450.88" cy="200.12" rx="8.29" ry="8.5" transform="translate(249.14 645.24) rotate(-89.57)"/><ellipse class="cls-17" cx="482.88" cy="200.36" rx="8.29" ry="8.5" transform="translate(280.65 677.48) rotate(-89.57)"/><ellipse class="cls-17" cx="514.88" cy="200.6" rx="8.29" ry="8.5" transform="translate(312.17 709.72) rotate(-89.57)"/><ellipse class="cls-17" cx="163.88" cy="199.4" rx="8.29" ry="8.5" transform="translate(-34.97 357.53) rotate(-89.57)"/><ellipse class="cls-17" cx="195.88" cy="199.64" rx="8.29" ry="8.5" transform="translate(-3.45 389.77) rotate(-89.57)"/><ellipse class="cls-17" cx="227.88" cy="199.88" rx="8.29" ry="8.5" transform="translate(28.07 422.01) rotate(-89.57)"/><ellipse class="cls-17" cx="259.88" cy="200.12" rx="8.29" ry="8.5" transform="translate(59.58 454.25) rotate(-89.57)"/><ellipse class="cls-17" cx="291.88" cy="200.36" rx="8.29" ry="8.5" transform="translate(91.1 486.49) rotate(-89.57)"/><ellipse class="cls-17" cx="323.88" cy="200.6" rx="8.29" ry="8.5" transform="translate(122.61 518.73) rotate(-89.57)"/><ellipse class="cls-17" cx="65.88" cy="199.12" rx="8.29" ry="8.5" transform="translate(-131.95 259.26) rotate(-89.57)"/><ellipse class="cls-17" cx="97.88" cy="199.36" rx="8.29" ry="8.5" transform="translate(-100.44 291.5) rotate(-89.57)"/><ellipse class="cls-17" cx="129.88" cy="199.6" rx="8.29" ry="8.5" transform="translate(-68.92 323.74) rotate(-89.57)"/><path d="M756.92,182.91A16.1,16.1,0,0,1,773,199V378.83a16.1,16.1,0,0,1-16.08,16.08H21.08A16.1,16.1,0,0,1,5,378.83V199a16.1,16.1,0,0,1,16.08-16.08H756.92m0-5H21.08A21.08,21.08,0,0,0,0,199V378.83a21.08,21.08,0,0,0,21.08,21.08H756.92A21.08,21.08,0,0,0,778,378.83V199a21.08,21.08,0,0,0-21.08-21.08Z" transform="translate(1.78 -4.23)"/></g><g id="Left_Lights" data-name="Left Lights"><ellipse class="cls-17" cx="753.66" cy="355.77" rx="8.29" ry="8.5"/><ellipse class="cls-17" cx="753.66" cy="323.77" rx="8.29" ry="8.5"/><ellipse class="cls-17" cx="753.66" cy="291.77" rx="8.29" ry="8.5"/><ellipse class="cls-17" cx="753.66" cy="259.77" rx="8.29" ry="8.5"/><ellipse class="cls-17" cx="753.66" cy="227.77" rx="8.29" ry="8.5"/><ellipse class="cls-17" cx="745.66" cy="199.77" rx="8.29" ry="8.5"/><ellipse class="cls-17" cx="549.88" cy="379.4" rx="8.29" ry="8.5" transform="translate(168.12 922.16) rotate(-89.57)"/><ellipse class="cls-17" cx="581.88" cy="379.64" rx="8.29" ry="8.5" transform="translate(199.64 954.4) rotate(-89.57)"/><ellipse class="cls-17" cx="613.88" cy="379.88" rx="8.29" ry="8.5" transform="translate(231.15 986.64) rotate(-89.57)"/><ellipse class="cls-17" cx="645.88" cy="380.12" rx="8.29" ry="8.5" transform="translate(262.67 1018.88) rotate(-89.57)"/><ellipse class="cls-17" cx="677.88" cy="380.36" rx="8.29" ry="8.5" transform="translate(294.19 1051.12) rotate(-89.57)"/><ellipse class="cls-17" cx="709.88" cy="380.6" rx="8.29" ry="8.5" transform="translate(325.7 1083.35) rotate(-89.57)"/><ellipse class="cls-17" cx="735.88" cy="379.6" rx="8.29" ry="8.5" transform="translate(352.5 1108.36) rotate(-89.57)"/><ellipse class="cls-17" cx="355.88" cy="378.4" rx="8.29" ry="8.5" transform="translate(-23.41 727.18) rotate(-89.57)"/><ellipse class="cls-17" cx="387.88" cy="378.64" rx="8.29" ry="8.5" transform="translate(8.1 759.41) rotate(-89.57)"/><ellipse class="cls-17" cx="419.88" cy="378.88" rx="8.29" ry="8.5" transform="translate(39.62 791.65) rotate(-89.57)"/><ellipse class="cls-17" cx="451.88" cy="379.12" rx="8.29" ry="8.5" transform="translate(71.14 823.89) rotate(-89.57)"/><ellipse class="cls-17" cx="483.88" cy="379.36" rx="8.29" ry="8.5" transform="translate(102.65 856.13) rotate(-89.57)"/><ellipse class="cls-17" cx="515.88" cy="379.6" rx="8.29" ry="8.5" transform="translate(134.17 888.37) rotate(-89.57)"/><ellipse class="cls-17" cx="164.88" cy="378.4" rx="8.29" ry="8.5" transform="translate(-212.97 536.18) rotate(-89.57)"/><ellipse class="cls-17" cx="196.88" cy="378.64" rx="8.29" ry="8.5" transform="translate(-181.45 568.42) rotate(-89.57)"/><ellipse class="cls-17" cx="228.88" cy="378.88" rx="8.29" ry="8.5" transform="translate(-149.94 600.66) rotate(-89.57)"/><ellipse class="cls-17" cx="260.88" cy="379.12" rx="8.29" ry="8.5" transform="translate(-118.42 632.9) rotate(-89.57)"/><ellipse class="cls-17" cx="292.88" cy="379.36" rx="8.29" ry="8.5" transform="translate(-86.91 665.13) rotate(-89.57)"/><ellipse class="cls-17" cx="324.88" cy="379.6" rx="8.29" ry="8.5" transform="translate(-55.39 697.37) rotate(-89.57)"/><ellipse class="cls-17" cx="66.88" cy="378.12" rx="8.29" ry="8.5" transform="translate(-309.96 437.91) rotate(-89.57)"/><ellipse class="cls-17" cx="98.88" cy="378.36" rx="8.29" ry="8.5" transform="translate(-278.44 470.15) rotate(-89.57)"/><ellipse class="cls-17" cx="130.88" cy="378.6" rx="8.29" ry="8.5" transform="translate(-246.92 502.39) rotate(-89.57)"/><ellipse class="cls-17" cx="25.66" cy="355.77" rx="8.29" ry="8.5"/><ellipse class="cls-17" cx="37.66" cy="374.77" rx="8.29" ry="8.5"/><ellipse class="cls-17" cx="25.66" cy="323.77" rx="8.29" ry="8.5"/><ellipse class="cls-17" cx="25.66" cy="291.77" rx="8.29" ry="8.5"/><ellipse class="cls-17" cx="25.66" cy="259.77" rx="8.29" ry="8.5"/><ellipse class="cls-17" cx="25.66" cy="227.77" rx="8.29" ry="8.5"/><ellipse class="cls-17" cx="33.66" cy="199.77" rx="8.29" ry="8.5"/></g></svg>